<svg id="Layer_35" enable-background="new 0 0 64 64" height="512" viewBox="0 0 64 64" width="512" xmlns="http://www.w3.org/2000/svg"><path d="m18 28h2c0 2.21-.9 4.21-2.34 5.66-1.45 1.44-3.45 2.34-5.66 2.34h-2c-4.42 0-8-3.58-8-8h2z" fill="#ccd1d9"/><path d="m60 28h2c0 2.21-.9 4.21-2.34 5.66-1.45 1.44-3.45 2.34-5.66 2.34h-2c-4.42 0-8-3.58-8-8h2z" fill="#ccd1d9"/><path d="m43.88 60.34c.08.54.12 1.1.12 1.66h-5-14-5c0-.56.04-1.12.12-1.66.24-1.82.9-3.51 1.88-4.97.44-.67.94-1.29 1.51-1.86 2.17-2.17 5.17-3.51 8.49-3.51 4.18 0 7.86 2.13 10 5.37.98 1.46 1.64 3.15 1.88 4.97z" fill="#4fc1e9"/><path d="m34.85 36.61c2.45 1.08 4.15 3.54 4.15 6.39 0 3.87-3.13 7-7 7s-7-3.13-7-7c0-2.85 1.7-5.31 4.15-6.39.87-.4 1.83-.61 2.85-.61s1.98.21 2.85.61z" fill="#f0d0b4"/><path d="m18 57.2c-1.67.5-3.75.8-6 .8s-4.33-.3-6-.8c-2.43-.73-4-1.89-4-3.2v4c0 1.31 1.57 2.47 4 3.2 1.67.5 3.75.8 6 .8s4.32-.3 6-.8c.81-.24 1.53-.53 2.12-.86.24-1.82.9-3.51 1.88-4.97v-1.37c0 1.31-1.57 2.47-4 3.2z" fill="#ffc729"/><path d="m18 49.2c-1.67.5-3.75.8-6 .8s-4.33-.3-6-.8c-2.43-.73-4-1.89-4-3.2v4c0 1.31 1.57 2.47 4 3.2 1.67.5 3.75.8 6 .8s4.33-.3 6-.8c2.43-.73 4-1.89 4-3.2v-4c0 1.31-1.57 2.47-4 3.2z" fill="#ffc729"/><path d="m58 53.2c-1.67.5-3.75.8-6 .8s-4.33-.3-6-.8c-2.43-.73-4-1.89-4-3.2v4c0 1.31 1.57 2.47 4 3.2 1.67.5 3.75.8 6 .8s4.33-.3 6-.8c2.43-.73 4-1.89 4-3.2v-4c0 1.31-1.57 2.47-4 3.2z" fill="#ffc729"/><g fill="#fcd770"><path d="m58 57.2c-1.67.5-3.75.8-6 .8s-4.33-.3-6-.8c-2.43-.73-4-1.89-4-3.2v1.37c.98 1.46 1.64 3.15 1.88 4.97.59.33 1.31.62 2.12.86 1.68.5 3.75.8 6 .8s4.33-.3 6-.8c2.43-.73 4-1.89 4-3.2v-4c0 1.31-1.57 2.47-4 3.2z"/><path d="m18 53.2c-1.67.5-3.75.8-6 .8s-4.33-.3-6-.8c-2.43-.73-4-1.89-4-3.2v4c0 1.31 1.57 2.47 4 3.2 1.67.5 3.75.8 6 .8s4.33-.3 6-.8c2.43-.73 4-1.89 4-3.2v-4c0 1.31-1.57 2.47-4 3.2z"/><path d="m22 46c0 1.31-1.57 2.47-4 3.2-1.67.5-3.75.8-6 .8s-4.33-.3-6-.8c-2.43-.73-4-1.89-4-3.2 0-2.21 4.48-4 10-4s10 1.79 10 4z"/><path d="m62 50c0 1.31-1.57 2.47-4 3.2-1.67.5-3.75.8-6 .8s-4.33-.3-6-.8c-2.43-.73-4-1.89-4-3.2 0-2.21 4.48-4 10-4s10 1.79 10 4z"/></g><path d="m61.41 12.59c.37.36.59.86.59 1.41 0 1.1-.9 2-2 2h-6-2-14.71l1.19-2.09c.33-.59.51-1.24.52-1.91h21c.55 0 1.05.22 1.41.59z" fill="#d3a06c"/><path d="m25.52 13.91 1.19 2.09h-14.71-2-6c-.55 0-1.05-.22-1.41-.59-.37-.36-.59-.86-.59-1.41 0-1.1.9-2 2-2h21c.01.67.19 1.32.52 1.91z" fill="#d3a06c"/><path d="m35 5v3h-6v-3c0-1.66 1.34-3 3-3 .83 0 1.58.34 2.12.88s.88 1.29.88 2.12z" fill="#d3a06c"/><path d="m31.29 20h1.42c.74 0 1.45-.21 2.05-.58l.24.36v16.51l-.15.32c-.87-.4-1.83-.61-2.85-.61s-1.98.21-2.85.61l-.15-.32v-16.51l.24-.36c.6.37 1.31.58 2.05.58z" fill="#d3a06c"/><path d="m39 11.95v.05c-.01.67-.19 1.32-.52 1.91l-1.19 2.09-1.15 2.01c-.34.59-.82 1.07-1.38 1.41-.6.37-1.31.58-2.05.58h-1.42c-.74 0-1.45-.21-2.05-.58-.56-.34-1.04-.82-1.38-1.41l-1.15-2.01-1.19-2.09c-.33-.59-.51-1.24-.52-1.91 0-.02 0-.03 0-.05 0-2.18 1.77-3.95 3.95-3.95h.05 6 .05c1.09 0 2.08.44 2.79 1.16.72.71 1.16 1.7 1.16 2.79z" fill="#dfb28b"/><circle cx="32" cy="14" fill="#fcd770" r="2"/><path d="m55.618 17h4.382c1.654 0 3-1.346 3-3s-1.346-3-3-3h-20.096c-.385-1.968-1.936-3.519-3.904-3.904v-2.096c0-2.206-1.794-4-4-4s-4 1.794-4 4v2.096c-1.968.385-3.519 1.936-3.904 3.904h-20.096c-1.654 0-3 1.346-3 3s1.346 3 3 3h4.382l-5 10h-2.382v1c0 4.962 4.037 9 9 9h2c4.963 0 9-4.038 9-9v-1h-2.382l-5-10h12.516l.86 1.505c.28.49.645.914 1.06 1.273h-.054v16.304c-2.387 1.386-4 3.964-4 6.918 0 2.833 1.484 5.32 3.711 6.742-1.778.624-3.38 1.618-4.711 2.899v-6.641c0-3.248-5.667-5-11-5s-11 1.752-11 5v12c0 3.248 5.667 5 11 5 2.624 0 5.076-.387 7.004-1.08 0 .027-.004.053-.004.08v1h26v-1c0-.027-.004-.053-.004-.08 1.927.693 4.379 1.08 7.004 1.08 5.333 0 11-1.752 11-5v-8c0-3.248-5.667-5-11-5s-11 1.752-11 5v2.641c-1.331-1.281-2.933-2.275-4.711-2.899 2.227-1.422 3.711-3.909 3.711-6.742 0-2.953-1.613-5.532-4-6.918v-16.303h-.055c.416-.36.781-.783 1.061-1.274l.86-1.505h12.516l-5 10h-2.382v1c0 4.962 4.037 9 9 9h2c4.963 0 9-4.038 9-9v-1h-2.382zm-23.618-14c1.103 0 2 .897 2 2v2h-4v-2c0-1.103.897-2 2-2zm-20 32h-2c-3.521 0-6.442-2.612-6.929-6h15.857c-.486 3.388-3.407 6-6.928 6zm4.382-8h-10.764l5-10h.764zm-12.382-12c-.552 0-1-.449-1-1s.448-1 1-1h20.122c.107.491.279.968.53 1.407l.339.593zm7 35.98v2c-1.524-.062-2.865-.264-4-.544v-1.962c1.264.279 2.63.45 4 .506zm2 0c1.37-.056 2.736-.227 4-.506v1.962c-1.135.28-2.476.482-4 .544zm-2 4v2c-1.524-.062-2.865-.264-4-.544v-1.962c1.264.279 2.63.45 4 .506zm0 4v2c-1.524-.062-2.865-.264-4-.544v-1.962c1.264.279 2.63.45 4 .506zm2 0c1.37-.056 2.736-.227 4-.506v1.958c-1.199.295-2.563.485-4 .545zm0-2v-2c1.37-.056 2.736-.227 4-.506v1.962c-1.135.28-2.476.482-4 .544zm6-3.079c.747-.268 1.426-.581 2-.943v1.042c0 .551-.716 1.213-2 1.776zm0-2.125v-1.874c.747-.268 1.426-.581 2-.943v1.041c0 .551-.716 1.213-2 1.776zm-7-8.776c5.494 0 9 1.777 9 3s-3.506 3-9 3-9-1.777-9-3 3.506-3 9-3zm-9 5.958c.574.362 1.253.675 2 .943v1.874c-1.284-.562-2-1.224-2-1.775zm0 4c.574.362 1.253.675 2 .943v1.874c-1.284-.562-2-1.224-2-1.775zm0 5.042v-1.042c.574.362 1.253.675 2 .943v1.874c-1.284-.562-2-1.224-2-1.775zm16 1.771v-1.87c.273-.098.535-.202.787-.312-.242.669-.435 1.359-.565 2.073-.075.036-.144.074-.222.109zm24-6.813c.574.362 1.253.675 2 .943v1.874c-1.284-.563-2-1.225-2-1.776zm8 8.019c-1.437-.06-2.801-.25-4-.545v-1.958c1.264.279 2.63.45 4 .506zm2-1.997c1.37-.056 2.736-.227 4-.506v1.962c-1.135.28-2.476.482-4 .544zm0-2v-2c1.37-.056 2.736-.227 4-.506v1.962c-1.135.28-2.476.482-4 .544zm-2 0c-1.524-.062-2.865-.264-4-.544v-1.962c1.264.279 2.63.45 4 .506zm-6.787.609c.252.11.514.214.787.312v1.869c-.078-.035-.147-.073-.222-.108-.13-.714-.323-1.404-.565-2.073zm14.787 2.187v-1.874c.747-.268 1.426-.581 2-.943v1.041c0 .551-.716 1.213-2 1.776zm0-4v-1.874c.747-.268 1.426-.581 2-.943v1.041c0 .551-.716 1.213-2 1.776zm-7-8.776c5.494 0 9 1.777 9 3s-3.506 3-9 3-9-1.777-9-3 3.506-3 9-3zm-9.045 14h-2.955v-5h-2v5h-12v-5h-2v5h-2.955c.507-5.599 5.226-10 10.955-10s10.448 4.401 10.955 10zm-4.955-18c0 3.309-2.691 6-6 6s-6-2.691-6-6 2.691-6 6-6 6 2.691 6 6zm-4-7.737c-.641-.166-1.308-.263-2-.263s-1.359.097-2 .263v-14.436c.417.113.851.173 1.293.173h1.414c.442 0 .876-.06 1.293-.173zm1.27-17.75c-.525.917-1.506 1.487-2.563 1.487h-1.414c-1.057 0-2.038-.57-2.562-1.487l-2.342-4.098c-.254-.445-.389-.952-.389-1.464 0-1.627 1.324-2.951 2.951-2.951h6.098c1.627 0 2.951 1.324 2.951 2.951 0 .512-.135 1.019-.389 1.464zm4.078-3.106c.251-.439.423-.916.53-1.407h20.122c.552 0 1 .449 1 1s-.448 1-1 1h-20.991zm13.27 2.593h.764l5 10h-10.764zm1.382 18h-2c-3.521 0-6.442-2.612-6.929-6h15.857c-.486 3.388-3.407 6-6.928 6z"/><path d="m32 11c-1.654 0-3 1.346-3 3s1.346 3 3 3 3-1.346 3-3-1.346-3-3-3zm0 4c-.552 0-1-.449-1-1s.448-1 1-1 1 .449 1 1-.448 1-1 1z"/></svg>