<svg id="Layer_35" enable-background="new 0 0 64 64" height="512" viewBox="0 0 64 64" width="512" xmlns="http://www.w3.org/2000/svg" xmlns:xlink="http://www.w3.org/1999/xlink"><linearGradient id="SVGID_1_" gradientUnits="userSpaceOnUse" x1="32" x2="32" y1="63" y2="1"><stop offset="0" stop-color="#9f2fff"/><stop offset="1" stop-color="#0bb1d3"/></linearGradient><path d="m63 14c0-1.654-1.346-3-3-3h-20.096c-.385-1.968-1.936-3.519-3.904-3.904v-2.096c0-2.206-1.794-4-4-4s-4 1.794-4 4v2.096c-1.968.385-3.519 1.936-3.904 3.904h-20.096c-1.654 0-3 1.346-3 3s1.346 3 3 3h4.382l-5 10h-2.382v1c0 4.962 4.037 9 9 9h2c4.963 0 9-4.038 9-9v-1h-2.382l-5-10h12.516l.86 1.505c.28.49.645.914 1.06 1.273h-.054v16.304c-2.387 1.386-4 3.964-4 6.918 0 2.833 1.484 5.32 3.711 6.742-1.778.624-3.38 1.618-4.711 2.899v-6.641c0-3.248-5.667-5-11-5s-11 1.752-11 5v12c0 3.248 5.667 5 11 5 2.624 0 5.076-.387 7.004-1.08 0 .027-.004.053-.004.08v1h26v-1c0-.027-.004-.053-.004-.08 1.927.693 4.379 1.08 7.004 1.08 5.333 0 11-1.752 11-5v-8c0-3.248-5.667-5-11-5s-11 1.752-11 5v2.641c-1.331-1.281-2.933-2.275-4.711-2.899 2.227-1.422 3.711-3.909 3.711-6.742 0-2.953-1.613-5.532-4-6.918v-16.303h-.055c.416-.36.781-.783 1.061-1.274l.86-1.505h12.516l-5 10h-2.382v1c0 4.962 4.037 9 9 9h2c4.963 0 9-4.038 9-9v-1h-2.382l-5-10h4.382c1.654 0 3-1.346 3-3zm-31-11c1.103 0 2 .897 2 2v2h-4v-2c0-1.103.897-2 2-2zm-20 32h-2c-3.521 0-6.442-2.612-6.929-6h15.857c-.486 3.388-3.407 6-6.928 6zm4.382-8h-10.764l5-10h.764zm-12.382-12c-.552 0-1-.449-1-1s.448-1 1-1h20.122c.107.491.279.968.53 1.407l.339.593zm7 35.98v2c-1.524-.062-2.865-.264-4-.544v-1.962c1.264.279 2.63.45 4 .506zm2 0c1.37-.056 2.736-.227 4-.506v1.962c-1.135.28-2.476.482-4 .544zm-2 4v2c-1.524-.062-2.865-.264-4-.544v-1.962c1.264.279 2.63.45 4 .506zm0 4v2c-1.524-.062-2.865-.264-4-.544v-1.962c1.264.279 2.63.45 4 .506zm2 0c1.37-.056 2.736-.227 4-.506v1.958c-1.199.295-2.563.485-4 .545zm0-2v-2c1.37-.056 2.736-.227 4-.506v1.962c-1.135.28-2.476.482-4 .544zm6-3.079c.747-.268 1.426-.581 2-.943v1.042c0 .551-.716 1.213-2 1.776zm0-2.125v-1.874c.747-.268 1.426-.581 2-.943v1.041c0 .551-.716 1.213-2 1.776zm-7-8.776c5.494 0 9 1.777 9 3s-3.506 3-9 3-9-1.777-9-3 3.506-3 9-3zm-9 5.958c.574.362 1.253.675 2 .943v1.874c-1.284-.562-2-1.224-2-1.775zm0 4c.574.362 1.253.675 2 .943v1.874c-1.284-.562-2-1.224-2-1.775zm0 5.042v-1.042c.574.362 1.253.675 2 .943v1.874c-1.284-.562-2-1.224-2-1.775zm16 1.771v-1.87c.273-.098.535-.202.787-.312-.242.669-.435 1.359-.565 2.073-.075.036-.144.074-.222.109zm24-6.813c.574.362 1.253.675 2 .943v1.874c-1.284-.563-2-1.225-2-1.776zm8 8.019c-1.437-.06-2.801-.25-4-.545v-1.958c1.264.279 2.63.45 4 .506zm2-1.997c1.37-.056 2.736-.227 4-.506v1.962c-1.135.28-2.476.482-4 .544zm0-2v-2c1.37-.056 2.736-.227 4-.506v1.962c-1.135.28-2.476.482-4 .544zm-2 0c-1.524-.062-2.865-.264-4-.544v-1.962c1.264.279 2.63.45 4 .506zm-6.787.609c.252.11.514.214.787.312v1.869c-.078-.035-.147-.073-.222-.108-.13-.714-.323-1.404-.565-2.073zm14.787 2.187v-1.874c.747-.268 1.426-.581 2-.943v1.041c0 .551-.716 1.213-2 1.776zm0-4v-1.874c.747-.268 1.426-.581 2-.943v1.041c0 .551-.716 1.213-2 1.776zm-7-8.776c5.494 0 9 1.777 9 3s-3.506 3-9 3-9-1.777-9-3 3.506-3 9-3zm-9.045 14h-2.955v-5h-2v5h-12v-5h-2v5h-2.955c.507-5.599 5.226-10 10.955-10s10.448 4.401 10.955 10zm-4.955-18c0 3.309-2.691 6-6 6s-6-2.691-6-6 2.691-6 6-6 6 2.691 6 6zm-4-7.737c-.641-.166-1.308-.263-2-.263s-1.359.097-2 .263v-14.436c.417.113.851.173 1.293.173h1.414c.442 0 .876-.06 1.293-.173zm1.27-17.75c-.525.917-1.506 1.487-2.563 1.487h-1.414c-1.057 0-2.038-.57-2.562-1.487l-2.342-4.098c-.254-.445-.389-.952-.389-1.464 0-1.627 1.324-2.951 2.951-2.951h6.098c1.627 0 2.951 1.324 2.951 2.951 0 .512-.135 1.019-.389 1.464zm4.078-3.106c.251-.439.423-.916.53-1.407h20.122c.552 0 1 .449 1 1s-.448 1-1 1h-20.991zm14.652 20.593h-2c-3.521 0-6.442-2.612-6.929-6h15.857c-.486 3.388-3.407 6-6.928 6zm4.382-8h-10.764l5-10h.764zm-26.382-16c-1.654 0-3 1.346-3 3s1.346 3 3 3 3-1.346 3-3-1.346-3-3-3zm0 4c-.552 0-1-.449-1-1s.448-1 1-1 1 .449 1 1-.448 1-1 1z" fill="url(#SVGID_1_)"/></svg>