<svg id="Capa_1" enable-background="new 0 0 511.997 511.997" height="512" viewBox="0 0 511.997 511.997" width="512" xmlns="http://www.w3.org/2000/svg"><g><g><path d="m347.507 54.007h-275.085c-33.129 0-59.986 26.856-59.986 59.986v330.519c0 33.129 26.856 59.986 59.986 59.986h275.085c33.129 0 59.986-26.856 59.986-59.986v-330.52c0-33.129-26.857-59.985-59.986-59.985z" fill="#ffd064"/><path d="m97.696 504.5h-25.28c-33.13 0-59.98-26.86-59.98-59.99v-330.518c0-33.13 26.85-59.99 59.98-59.99h25.28c-33.13 0-59.99 26.86-59.99 59.99v330.518c.001 33.13 26.861 59.99 59.99 59.99z" fill="#eab14d"/><path d="m72.422 464.497c-11.02 0-19.986-8.966-19.986-19.986v-330.519c0-11.02 8.966-19.986 19.986-19.986h275.085c11.02 0 19.986 8.966 19.986 19.986v330.519c0 11.02-8.966 19.986-19.986 19.986z" fill="#f9f6f6"/><path d="m244.487 117.854h-69.044c-21.155 0-38.304-17.149-38.304-38.304v-33.746c0-21.155 17.149-38.304 38.304-38.304h69.044c21.155 0 38.304 17.149 38.304 38.304v33.746c0 21.155-17.149 38.304-38.304 38.304z" fill="#ecbe6b"/><path d="m206.038 117.854h-30.6c-21.15 0-38.3-17.15-38.3-38.3v-33.75c0-21.15 17.15-38.3 38.3-38.3h30.6c-21.16 0-38.31 17.15-38.31 38.3v33.75c.001 21.15 17.15 38.3 38.31 38.3z" fill="#eab14d"/><path d="m241.223 64.624h-62.517c-8.448 0-15.297-6.849-15.297-15.297 0-8.448 6.849-15.297 15.297-15.297h62.517c8.448 0 15.297 6.849 15.297 15.297 0 8.448-6.848 15.297-15.297 15.297z" fill="#5e54ac"/><g><path d="m346.653 389.859-75.823-75.823 148.802-148.802c5.496-5.496 14.408-5.496 19.904 0l55.918 55.918c5.496 5.496 5.496 14.408 0 19.904z" fill="#b1e4fa"/><path d="m454.101 179.806c-2.627-2.627-9.218-.312-14.714 5.184l-148.803 148.803-19.755-19.755 148.803-148.803c5.495-5.495 14.402-5.495 19.897 0z" fill="#9dc6fb"/><path d="m346.654 389.864-37.871 6.181-42.889-1.252-1.253-42.889 6.19-37.862c10.474-10.474 27.441-10.483 37.916-.009 10.465 10.465 10.465 27.441-.009 37.916 10.474-10.474 27.45-10.474 37.916-.009 10.474 10.474 10.474 27.45 0 37.924z" fill="#ecbe6b"/><path d="m264.314 391.636.326-39.738 6.19-37.862c8.533-8.533 21.385-10.127 31.512-4.738l-31.229 64.315z" fill="#eab14d"/><path d="m308.783 396.046-52.746 8.621h-.017l8.621-52.763z" fill="#e28086"/><path d="m256.037 404.667h-.017l8.621-52.763 11.454 11.454z" fill="#dd636e"/></g></g><g><path d="m178.706 72.124h62.517c12.57 0 22.797-10.227 22.797-22.797s-10.227-22.797-22.797-22.797h-62.517c-12.57 0-22.797 10.227-22.797 22.797s10.227 22.797 22.797 22.797zm0-30.594h62.517c4.299 0 7.797 3.498 7.797 7.797s-3.498 7.797-7.797 7.797h-62.517c-4.299 0-7.797-3.498-7.797-7.797s3.498-7.797 7.797-7.797z"/><path d="m500.76 215.847-55.925-55.925c-8.204-8.188-21.397-8.37-29.843-.592v-45.341c0-37.208-30.275-67.479-67.489-67.479h-57.213v-.706c.001-25.256-20.547-45.804-45.803-45.804h-69.044c-25.256 0-45.804 20.548-45.804 45.804v.706h-57.214c-37.214 0-67.49 30.271-67.49 67.479v330.518c0 37.214 30.276 67.49 67.49 67.49h275.078c37.214 0 67.489-30.276 67.489-67.49v-112.376l29.438-29.438c2.929-2.929 2.929-7.678 0-10.606-2.93-2.929-7.678-2.929-10.607 0l-72.432 72.433c-1.232-6.553-4.374-12.814-9.434-17.875-4.944-4.943-11.132-8.186-17.856-9.449l133.398-133.397 22.651 22.65c2.562 2.568 2.562 6.745.004 9.308l-35.16 35.16c-2.929 2.929-2.929 7.677 0 10.606 2.93 2.928 7.678 2.929 10.607 0l35.164-35.165c8.396-8.41 8.396-22.096-.005-30.511zm-153.256-154.337c28.942 0 52.489 23.542 52.489 52.479v60.277l-24.999 24.999v-85.276c0-15.152-12.332-27.48-27.49-27.48h-57.741c.347-2.27.528-4.594.528-6.959v-18.04zm-202.865-15.706c0-16.985 13.819-30.804 30.804-30.804h69.044c16.985 0 30.804 13.819 30.804 30.804v33.746c0 16.985-13.818 30.804-30.804 30.804h-69.044c-16.985 0-30.804-13.819-30.804-30.804zm255.354 398.703c0 28.943-23.547 52.49-52.489 52.49h-275.079c-28.943 0-52.49-23.547-52.49-52.49v-330.518c0-28.937 23.547-52.479 52.49-52.479h57.213v18.04c0 2.366.18 4.69.528 6.96h-57.74c-15.158 0-27.49 12.327-27.49 27.48v17.54c0 4.142 3.358 7.5 7.5 7.5s7.5-3.358 7.5-7.5v-17.54c0-6.882 5.603-12.48 12.49-12.48h62.832c7.789 14.197 22.88 23.844 40.184 23.844h69.044c17.304 0 32.395-9.648 40.184-23.845h62.833c6.887 0 12.49 5.598 12.49 12.48v100.277l-28.237 28.237c-.565-3.582-3.657-6.324-7.399-6.324-4.143 0-7.5 3.358-7.5 7.5 0 11.634-9.464 21.098-21.098 21.098s-21.099-9.465-21.099-21.098c0-4.142-3.357-7.5-7.5-7.5s-7.5 3.358-7.5 7.5c0 11.634-9.465 21.098-21.099 21.098-11.633 0-21.098-9.465-21.098-21.098 0-4.142-3.358-7.5-7.5-7.5s-7.5 3.358-7.5 7.5c0 11.634-9.464 21.098-21.098 21.098s-21.099-9.465-21.099-21.098c0-4.142-3.358-7.5-7.5-7.5s-7.5 3.358-7.5 7.5c0 11.634-9.465 21.098-21.098 21.098-11.634 0-21.099-9.465-21.099-21.098 0-4.142-3.358-7.5-7.5-7.5s-7.5 3.358-7.5 7.5c0 19.905 16.194 36.098 36.099 36.098 11.629 0 21.992-5.528 28.598-14.094 6.606 8.565 16.97 14.094 28.599 14.094s21.992-5.528 28.598-14.094c6.606 8.565 16.969 14.094 28.598 14.094s21.992-5.528 28.599-14.094c6.37 8.259 16.236 13.678 27.358 14.057l-28.997 28.997c-1.11 1.111-1.845 2.543-2.099 4.094l-14.8 90.63c-.389 2.382.392 4.806 2.099 6.512 1.418 1.418 3.331 2.197 5.303 2.197.402 0 .807-.032 1.21-.098l90.631-14.81c1.551-.253 2.982-.988 4.094-2.099l8.036-8.036v57.383c0 6.887-5.604 12.49-12.49 12.49h-275.079c-6.887 0-12.49-5.603-12.49-12.49v-283.14c0-4.142-3.358-7.5-7.5-7.5s-7.5 3.358-7.5 7.5v283.14c0 15.158 12.332 27.49 27.49 27.49h275.08c15.158 0 27.49-12.332 27.49-27.49v-72.383l24.996-24.996v97.376zm-130.306-76.952 23.451 23.451-28.028 4.58zm58.011-15.959c5.156 0 10.005 2.008 13.651 5.655 6.996 6.996 7.481 18.064 1.473 25.636l-31.451 5.139-38.707-38.707 5.136-31.452c3.4-2.705 7.576-4.183 11.985-4.183 5.156 0 10.005 2.008 13.651 5.655 7.528 7.528 7.528 19.777 0 27.305-1.464 1.464-2.196 3.384-2.196 5.303s.732 3.839 2.196 5.303c2.93 2.929 7.678 2.929 10.607 0 3.649-3.646 8.498-5.654 13.655-5.654zm-4.227-24.984c-1.231-6.554-4.365-12.818-9.425-17.879-4.944-4.944-11.132-8.186-17.856-9.449l128.75-128.751c2.561-2.561 6.731-2.558 9.294 0l22.658 22.658z"/><path d="m124.17 211.839c11.629 0 21.992-5.528 28.598-14.094 6.606 8.565 16.97 14.094 28.599 14.094s21.992-5.528 28.598-14.094c6.606 8.565 16.969 14.094 28.598 14.094s21.992-5.528 28.599-14.094c6.606 8.565 16.97 14.094 28.599 14.094 19.904 0 36.098-16.194 36.098-36.098 0-4.142-3.357-7.5-7.5-7.5s-7.5 3.358-7.5 7.5c0 11.634-9.464 21.098-21.098 21.098s-21.099-9.465-21.099-21.098c0-4.142-3.357-7.5-7.5-7.5s-7.5 3.358-7.5 7.5c0 11.634-9.465 21.098-21.099 21.098-11.633 0-21.098-9.465-21.098-21.098 0-4.142-3.358-7.5-7.5-7.5s-7.5 3.358-7.5 7.5c0 11.634-9.464 21.098-21.098 21.098s-21.099-9.465-21.099-21.098c0-4.142-3.358-7.5-7.5-7.5s-7.5 3.358-7.5 7.5c0 11.634-9.465 21.098-21.098 21.098-11.634 0-21.099-9.465-21.099-21.098 0-4.142-3.358-7.5-7.5-7.5s-7.5 3.358-7.5 7.5c0 19.904 16.194 36.098 36.099 36.098z"/><path d="m124.17 347.715c11.629 0 21.992-5.528 28.598-14.094 6.606 8.565 16.97 14.094 28.599 14.094s21.992-5.528 28.598-14.094c6.606 8.565 16.969 14.094 28.598 14.094 4.142 0 7.5-3.358 7.5-7.5s-3.358-7.5-7.5-7.5c-11.634 0-21.098-9.465-21.098-21.098 0-4.142-3.358-7.5-7.5-7.5s-7.5 3.358-7.5 7.5c0 11.634-9.464 21.098-21.098 21.098s-21.099-9.465-21.099-21.098c0-4.142-3.358-7.5-7.5-7.5s-7.5 3.358-7.5 7.5c0 11.634-9.465 21.098-21.098 21.098-11.634 0-21.099-9.465-21.099-21.098 0-4.142-3.358-7.5-7.5-7.5s-7.5 3.358-7.5 7.5c0 19.904 16.194 36.098 36.099 36.098z"/></g></g></svg>