<svg height="512" viewBox="0 0 64 64" width="512" xmlns="http://www.w3.org/2000/svg"><g id="book-money-finance"><path d="m5 3h46v55h-46z" fill="#0b7"/><path d="m51 55v6h-43a3 3 0 0 1 0-6z" fill="#806749"/><path d="m10 8h18v13h-18z" fill="#ffda44"/><path d="m22 28h37v22h-37z" fill="#4e901e"/><path d="m20 27h36v20h-36z" fill="#64c37d"/><path d="m56 32v10a5 5 0 0 0 -5 5h-26a5 5 0 0 0 -5-5v-10a5 5 0 0 0 5-5h26a5 5 0 0 0 5 5z" fill="#c2fb3b"/><circle cx="38" cy="37" fill="#ffda44" r="7"/><g fill="#ff9835"><path d="m26 36h3v2h-3z"/><path d="m47 36h3v2h-3z"/><path d="m37.5 35h1a.5.5 0 0 1 .5.5h2a2.5 2.5 0 0 0 -2-2.449v-1.051h-2v1.051a2.5 2.5 0 0 0 .5 4.949h1a.5.5 0 0 1 0 1h-1a.5.5 0 0 1 -.5-.5h-2a2.5 2.5 0 0 0 2 2.449v1.051h2v-1.051a2.5 2.5 0 0 0 -.5-4.949h-1a.5.5 0 0 1 0-1z"/></g><path d="m32 8h15v2h-15z" fill="#fff"/><path d="m32 13h15v2h-15z" fill="#fff"/><path d="m32 18h15v2h-15z" fill="#fff"/></g></svg>