<svg height="512pt" viewBox="-45 0 511 512" width="512pt" xmlns="http://www.w3.org/2000/svg"><g fill-rule="evenodd"><path d="m185.5 10h50v171h-50zm0 0" fill="#ffc059"/><path d="m235.5 181h-50c-.050781 0-.101562 0-.148438 0-5.433593.082031-9.851562 4.550781-9.851562 10v50c0 5.449219 4.417969 9.917969 9.851562 9.996094.046876.003906.097657.003906.148438.003906h50c.050781 0 .101562 0 .148438-.003906 5.433593-.078125 9.851562-4.546875 9.851562-9.996094v-50c0-5.453125-4.417969-9.917969-9.851562-10-.046876 0-.097657 0-.148438 0zm0 0" fill="#d675a7"/><path d="m185.5 250.996094h50v171h-50zm0 0" fill="#ffc059"/><path d="m185.5 422h50v80h-50zm0 0" fill="#ffc059"/><path d="m235.648438 250.996094c20.003906 19.039062 47.488281 33.597656 66.417968 14.664062 11.523438-11.523437 11.523438-30.378906 0-41.902344-4.136718-4.136718-4.617187-10.902343 0-15.519531 11.523438-11.523437 11.523438-30.378906 0-41.902343-18.929687-18.929688-46.414062-4.375-66.417968 14.664062 5.433593.082031 9.851562 4.546875 9.851562 10v50c0 5.449219-4.417969 9.917969-9.851562 9.996094zm0 0" fill="#d675a7"/><path d="m118.933594 265.660156c18.929687 18.933594 46.414062 4.378906 66.417968-14.664062-5.433593-.078125-9.851562-4.546875-9.851562-9.996094v-50c0-5.449219 4.417969-9.917969 9.851562-10-20.003906-19.039062-47.488281-33.59375-66.417968-14.664062-11.523438 11.523437-11.523438 30.378906 0 41.902343 4.617187 4.621094 4.140625 11.382813 0 15.523438-11.523438 11.519531-11.523438 30.375 0 41.898437zm0 0" fill="#d675a7"/><path d="m235.5 250.996094v171h155c10.941406-1.148438 20-9 20-20v-371.996094c0-11-9-20-20-20h-155v171h.148438c20.003906-19.039062 47.488281-33.59375 66.417968-14.664062 11.523438 11.523437 11.523438 30.378906 0 41.902343-4.617187 4.617188-4.136718 11.382813 0 15.519531 11.523438 11.523438 11.523438 30.378907 0 41.902344-18.929687 18.929688-46.414062 4.375-66.417968-14.664062-.046876 0-.097657 0-.148438 0zm0 0" fill="#8380e2"/><path d="m185.5 422v-171c-.050781 0-.101562 0-.148438-.003906-20.003906 19.042968-47.488281 33.597656-66.417968 14.664062-11.523438-11.523437-11.523438-30.378906 0-41.902344 4.140625-4.136718 4.617187-10.902343 0-15.519531-11.523438-11.523437-11.523438-30.378906 0-41.902343 18.929687-18.929688 46.414062-4.375 66.417968 14.664062h.148438v-171h-135c-22 0-40 18-40 40v412c0-22 18-40 40-40zm0 0" fill="#8380e2"/><path d="m185.5 422h-135c-22 0-40 18-40 40s18 40 40 40h135zm0 0" fill="#ffecd1"/><path d="m235.5 422h155v80h-155zm0 0" fill="#ffecd1"/></g><path d="m400.5 429.839844c11.984375-4.523438 20-15.195313 20-27.839844v-372c0-16.542969-13.457031-30-30-30h-250c-5.523438 0-10 4.476562-10 10s4.476562 10 10 10h35v140.144531c-24.433594-16.488281-47.410156-17.105469-63.636719-.878906-7.460937 7.460937-11.570312 17.414063-11.570312 28.023437 0 10.605469 4.109375 20.558594 11.570312 28.019532.363281.363281.359375.574218.355469.65625-.003906.234375-.136719.503906-.355469.722656-7.460937 7.460938-11.570312 17.414062-11.570312 28.023438 0 10.605468 4.109375 20.558593 11.570312 28.019531 7.929688 7.929687 17.46875 11.839843 28.007813 11.839843 11.023437 0 23.136718-4.289062 35.628906-12.71875v140.148438h-125c-11.25 0-21.636719 3.730469-30 10.023438v-372.023438c0-16.542969 13.457031-30 30-30 5.523438 0 10-4.476562 10-10s-4.476562-10-10-10c-27.570312 0-50 22.429688-50 50v412c0 27.570312 22.429688 50 50 50h360c5.523438 0 10-4.476562 10-10s-4.476562-10-10-10h-10zm0-399.839844v372c0 5.933594-5.402344 9.296875-10.589844 10h-144.410156v-140.148438c12.492188 8.433594 24.605469 12.722657 35.628906 12.71875 10.535156 0 20.078125-3.90625 28.007813-11.835937 7.460937-7.464844 11.570312-17.414063 11.570312-28.023437 0-10.609376-4.109375-20.5625-11.570312-28.023438-.6875-.6875-.207031-1.171875 0-1.378906 15.449219-15.449219 15.449219-40.589844 0-56.042969-16.226563-16.226563-39.203125-15.613281-63.636719.878906v-140.144531h145c5.515625 0 10 4.484375 10 10zm-215 211v-24.980469c0-.007812 0-.015625 0-.019531 0-.007812 0-.015625 0-.019531v-24.980469h50v50zm109.496094-10.167969c3.683594 3.683594 5.710937 8.613281 5.710937 13.878907 0 5.265624-2.027343 10.195312-5.710937 13.878906-12.375 12.375-30.800782 2.464844-42.792969-6.621094 2.078125-3.152344 3.296875-6.921875 3.296875-10.96875v-15h8.492188c5.523437 0 10-4.476562 10-10s-4.476563-10-10-10h-8.492188v-15c0-4.050781-1.21875-7.816406-3.296875-10.96875 11.992187-9.085938 30.414063-19 42.789063-6.625 7.65625 7.652344 7.65625 20.109375 0 27.761719-8.3125 8.316406-8.3125 21.347656.003906 29.664062zm-69.496094-210.832031v151h-30v-151zm-99.496094 238.589844c-3.683594-3.683594-5.714844-8.613282-5.714844-13.878906 0-5.269532 2.03125-10.195313 5.714844-13.878907 3.886719-3.890625 6.09375-9.015625 6.210938-14.4375.121094-5.691406-2.082032-11.101562-6.210938-15.226562-3.683594-3.6875-5.714844-8.613281-5.714844-13.878907 0-5.269531 2.03125-10.199218 5.714844-13.882812 12.375-12.375 30.800782-2.464844 42.792969 6.621094-2.078125 3.15625-3.296875 6.921875-3.296875 10.972656v15h-8.496094c-5.523437 0-10 4.476562-10 10 0 5.519531 4.476563 10 10 10h8.496094v15c0 4.046875 1.21875 7.8125 3.292969 10.96875-11.988281 9.085938-30.414063 18.996094-42.789063 6.621094zm69.496094 2.410156h30v151h-30zm30 171v60h-30v-60zm-205 30c0-16.542969 13.457031-30 30-30h125v60h-125c-16.542969 0-30-13.457031-30-30zm225 30v-60h135v20h-44.996094c-5.519531 0-10 4.476562-10 10s4.480469 10 10 10h44.996094v20zm0 0"/><path d="m290.507812 452h-.007812c-5.519531 0-9.996094 4.476562-9.996094 10s4.480469 10 10.003906 10c5.523438 0 10-4.476562 10-10s-4.476562-10-10-10zm0 0"/><path d="m95.503906 20c5.523438 0 10-4.476562 10-10s-4.476562-10-10-10h-.007812c-5.523438 0-9.996094 4.476562-9.996094 10s4.480469 10 10.003906 10zm0 0"/></svg>