<svg height="512pt" viewBox="0 0 512 512" width="512pt" xmlns="http://www.w3.org/2000/svg"><path d="m512 256c0 141.386719-114.613281 256-256 256s-256-114.613281-256-256 114.613281-256 256-256 256 114.613281 256 256zm0 0" fill="#fdd25d"/><path d="m410.78125 459.921875c-42.976562 32.675781-96.613281 52.078125-154.78125 52.078125s-111.804688-19.402344-154.78125-52.078125c32.101562-15.683594 89.414062-26.121094 154.78125-26.121094s122.691406 10.4375 154.78125 26.121094zm0 0" fill="#eaa339"/><path d="m436.167969 150.222656c-35.816407-200.292968-324.523438-200.292968-360.339844 0-3.1875 17.828125-4.851563 36.183594-4.851563 54.933594 0 126.746094 76.058594 235.714844 185.019532 283.792969 108.960937-48.082031 185.023437-157.046875 185.023437-283.792969 0-18.75-1.664062-37.105469-4.851562-54.933594zm0 0" fill="#5ed1c7"/><path d="m400.859375 183.796875c0 74.394531-56.078125 135.707031-128.277344 143.921875-5.441406.628906-10.964843.953125-16.578125.953125-80.003906 0-144.871094-64.871094-144.871094-144.875 0-80 64.867188-144.855469 144.871094-144.855469 5.613282 0 11.136719.324219 16.578125.953125 72.199219 8.214844 128.277344 69.511719 128.277344 143.902344zm0 0" fill="#fcf8f2"/><path d="m273.785156 29.519531c-5.863281-.679687-11.839844-1.023437-17.785156-1.023437-6.425781 0-12.765625.390625-18.988281 1.152344-16.5 2.019531-21.175781-22.027344-5.136719-26.398438 7.949219-2.167969 16.039062-3.25 24.125-3.25-81.125 0-162.261719 50.082031-180.171875 150.226562-3.1875 17.824219-4.847656 36.183594-4.847656 54.929688 0 126.746094 76.058593 235.707031 185.019531 283.792969-34.179688-22.261719-63.585938-57.5625-85.316406-101.640625-14.457032-29.332032 12.636718-62.390625 44.171875-53.71875 13.109375 3.605468 26.90625 5.53125 41.144531 5.53125 5.945312 0 11.921875-.34375 17.761719-1.023438 78.410156-8.914062 137.542969-75.253906 137.542969-154.300781 0-79.035156-59.132813-145.367187-137.519532-154.277344zm-2.402344 287.816407c-5.070312.585937-10.242187.886718-15.382812.886718-56.164062 0-104.386719-34.625-124.46875-83.652344 0 0 .011719 0 0-.011718-6.40625-15.671875-9.945312-32.808594-9.945312-50.761719 0-24.910156 6.8125-48.253906 18.660156-68.273437 23.425781-39.550782 66.550781-66.132813 115.753906-66.132813 5.140625 0 10.3125.292969 15.402344.890625 67.84375 7.710938 119.003906 65.117188 119.003906 133.515625 0 68.410156-51.160156 125.816406-119.023438 133.539063zm0 0" fill="#2ba494"/><path d="m178.964844 276.828125c-4.933594 0-9.5625-2.183594-12.695313-6-3.136719-3.8125-4.382812-8.777344-3.425781-13.617187l20.714844-104.785157v-40.179687h8.359375v41l-.082031.398437-20.792969 105.1875c-.46875 2.378907.144531 4.816407 1.683593 6.691407 1.539063 1.875 3.8125 2.949218 6.238282 2.949218 4.453125 0 8.074218-3.621094 8.074218-8.074218v-52.878907c0-12.675781 10.3125-22.988281 22.988282-22.988281v8.359375c-8.066406 0-14.628906 6.5625-14.628906 14.628906v52.878907c0 9.058593-7.371094 16.429687-16.433594 16.429687zm0 0" fill="#494966"/><path d="m336.609375 106.328125v173.285156h-133.371094v-173.285156c0-13.550781 10.992188-24.546875 24.546875-24.546875h84.28125c13.550782 0 24.542969 10.996094 24.542969 24.546875zm0 0" fill="#e53841"/><path d="m336.609375 106.328125v173.285156h-123.441406v-173.285156c0-13.550781 10.992187-24.546875 24.542969-24.546875h74.355468c13.550782 0 24.542969 10.996094 24.542969 24.546875zm0 0" fill="#fc5f61"/><path d="m222.050781 157.074219v-50.746094c0-3.167969 2.566407-5.738281 5.734375-5.738281h84.28125c3.167969 0 5.738282 2.570312 5.738282 5.738281v50.746094c0 4.199219-3.40625 7.605469-7.605469 7.605469h-80.542969c-4.203125 0-7.605469-3.40625-7.605469-7.605469zm0 0" fill="#c5f3ff"/><path d="m184.425781 81.261719h9.929688v35.785156h-9.929688zm0 0" fill="#e6e6e6"/><path d="m184.425781 81.261719h3.5v35.785156h-3.5zm0 0" fill="#ccc"/><g fill="#494966"><path d="m231.152344 115.78125h20.683594v33.707031h-20.683594zm0 0"/><path d="m288.015625 115.78125h20.683594v33.707031h-20.683594zm0 0"/><path d="m259.585938 115.78125h20.683593v33.707031h-20.683593zm0 0"/></g><path d="m191.722656 105.816406h-3.796875c-7.78125 0-14.3125 5.867188-15.136719 13.605469l-3.160156 29.640625c-.46875 4.390625 2.972656 8.214844 7.386719 8.214844h12.523437c4.101563 0 7.425782-3.328125 7.425782-7.429688v-38.789062c0-2.894532-2.34375-5.242188-5.242188-5.242188zm0 0" fill="#38538a"/><path d="m249.117188 228.945312c0 .828126.019531 1.652344.0625 2.472657 1.273437 25.71875 40.21875 25.71875 41.492187 0 .042969-.820313.0625-1.644531.0625-2.472657 0-16.585937-8.222656-31.238281-20.808594-40.132812-12.585937 8.894531-20.808593 23.546875-20.808593 40.132812zm0 0" fill="#494966"/></svg>