<svg id="Layer_3" enable-background="new 0 0 64 64" height="512" viewBox="0 0 64 64" width="512" xmlns="http://www.w3.org/2000/svg"><path d="m16 2h32v46h-32z" fill="#e3e1e3"/><path d="m20 14h4v4h-4z" fill="#e3aa75"/><path d="m20 6h4v4h-4z" fill="#e3aa75"/><path d="m2 62v-7c0-6.075 4.925-11 11-11 6.075 0 11 4.925 11 11v7z" fill="#aa8058"/><path d="m11.5 44.114c-5.364.733-9.5 5.321-9.5 10.886v7h19v-7c0-5.565-4.136-10.153-9.5-10.886z" fill="#e3aa75"/><path d="m40 62v-7c0-6.075 4.925-11 11-11 6.075 0 11 4.925 11 11v7z" fill="#9ab878"/><path d="m49.5 44.114c-5.364.733-9.5 5.321-9.5 10.886v7h19v-7c0-5.565-4.136-10.153-9.5-10.886z" fill="#cdf5a0"/><path d="m21 56v-7c0-6.075 4.925-11 11-11 6.075 0 11 4.925 11 11v7z" fill="#bf6065"/><path d="m30.5 38.114c-5.364.733-9.5 5.321-9.5 10.886v7h19v-7c0-5.565-4.136-10.153-9.5-10.886z" fill="#ff8087"/><circle cx="32" cy="30" fill="#f7d291" r="8"/><path d="m32 22c-4.418 0-8 3.582-8 8h1.005c2.558 0 5.011-1.016 6.82-2.825l1.175-1.175c0 2.209 1.791 4 4 4h3c0-4.418-3.582-8-8-8z" fill="#979598"/><circle cx="13" cy="36" fill="#f7d291" r="8"/><path d="m13 28c-4.418 0-8 3.582-8 8h1.005c2.558 0 5.011-1.016 6.82-2.825l1.175-1.175c0 2.209 1.791 4 4 4h3c0-4.418-3.582-8-8-8z" fill="#979598"/><circle cx="51" cy="36" fill="#f7d291" r="8"/><path d="m51 28c-4.418 0-8 3.582-8 8h1.005c2.558 0 5.011-1.016 6.82-2.825l1.175-1.175c0 2.209 1.791 4 4 4h3c0-4.418-3.582-8-8-8z" fill="#979598"/><g fill="#e3aa75"><path d="m27 5h18v2h-18z"/><path d="m27 9h18v2h-18z"/><path d="m27 13h18v2h-18z"/><path d="m27 17h18v2h-18z"/></g></svg>