<svg id="Capa_1" enable-background="new 0 0 512 512" height="512" viewBox="0 0 512 512" width="512" xmlns="http://www.w3.org/2000/svg"><g><path d="m61 106v150c0 74.558 60.442 135 135 135h60v-60h-60c-41.421 0-75-33.579-75-75v-150h45l-75-106-75 106z" fill="#97de3d"/><path d="m451 406v-150c0-74.558-60.442-135-135-135h-60v60h60c41.421 0 75 33.579 75 75v150h-45l75 106 75-106z" fill="#f03800"/><g><circle cx="256" cy="256" fill="#fed843" r="135"/><path d="m391 256c0-74.559-60.441-135-135-135v270c74.559 0 135-60.441 135-135z" fill="#fabe2c"/><g><path d="m256 241c-8.276 0-15-6.724-15-15s6.724-15 15-15 15 6.724 15 15h30c0-19.565-12.563-36.048-30-42.246v-32.754h-15-15v32.754c-17.437 6.198-30 22.681-30 42.246 0 24.853 20.147 45 45 45 8.276 0 15 6.724 15 15s-6.724 15-15 15-15-6.724-15-15h-30c0 19.565 12.563 36.048 30 42.246v32.754h15 15v-32.754c17.437-6.198 30-22.681 30-42.246 0-24.853-20.147-45-45-45z" fill="#fabe2c"/></g><g fill="#ff9100"><path d="m271 328.246c17.437-6.198 30-22.681 30-42.246 0-24.853-20.147-45-45-45v30c8.276 0 15 6.724 15 15s-6.724 15-15 15v60h15z"/><path d="m271 226h30c0-19.565-12.563-36.048-30-42.246v-32.754h-15v60c8.276 0 15 6.724 15 15z"/></g></g></g></svg>