<svg height="452pt" viewBox="0 -20 452 452" width="452pt" xmlns="http://www.w3.org/2000/svg"><path d="m402.898438 303.46875h38.0625v102.210938h-38.0625zm0 0" fill="#e48e66"/><path d="m390.109375 151.230469c7.066406.003906 12.789063 5.734375 12.789063 12.800781v139.4375h-64.160157v-1.527344l38.382813-150.710937zm0 0" fill="#e2d574"/><path d="m373.480469 6c11.25.011719 20.953125 7.898438 23.257812 18.910156.328125 1.59375.492188 3.214844.492188 4.839844v13.539062h-47.511719v-13.539062c.003906-13.078125 10.574219-23.691406 23.652344-23.75zm0 0" fill="#6fe3ff"/><path d="m396.96875 24.859375h49.03125v26.320313c0 13.46875-10.917969 24.386718-24.386719 24.386718-13.464843 0-24.382812-10.917968-24.382812-24.386718v-21.429688c0-1.625-.164063-3.246094-.492188-4.839844zm0 0" fill="#6fe3ff"/><path d="m239.398438 151.230469v-121.589844c0-13.058594 10.585937-23.644531 23.640624-23.640625h110.332032c-13.078125.058594-23.648438 10.671875-23.652344 23.75v152.859375h-110.320312zm0 0" fill="#6fe3ff"/><path d="m338.738281 303.46875h-307.269531l35.929688-142.570312c1.4375-5.679688 6.550781-9.664063 12.410156-9.667969h159.589844v31.378906h110.320312v-31.378906h27.402344l-38.382813 150.710937zm-140.789062-71.769531 15.332031-51.109375h-111.78125l-14.058594 51.109375zm0 0" fill="#f8ec7d"/><path d="m219.128906 55.539062v38.0625h-130.488281v-38.0625zm0 0" fill="#e48e66"/><path d="m213.28125 180.589844-15.332031 51.109375h-110.507813l14.058594-51.109375zm0 0" fill="#e48e66"/><path d="m186.390625 365.261719c-9.011719-.003907-16.3125-7.308594-16.3125-16.320313.003906-9.007812 7.304687-16.308594 16.316406-16.3125 9.007813 0 16.3125 7.300782 16.316407 16.3125-.003907 9.011719-7.308594 16.316406-16.320313 16.320313zm0 0" fill="#6fe3ff"/><path d="m139.75 93.601562h28.269531v57.628907h-28.269531zm0 0" fill="#6fe3ff"/><path d="m186.390625 365.261719c9.011719 0 16.316406-7.300781 16.320313-16.3125 0-9.007813-7.300782-16.316407-16.3125-16.320313-9.007813 0-16.316407 7.300782-16.320313 16.3125.003906 9.007813 7.304687 16.3125 16.3125 16.320313zm-154.921875-61.792969h371.429688v102.210938h-396.898438v-102.210938zm0 0" fill="#6fe3ff"/><g fill="#63316d"><path d="m6 411.679688h434.960938c3.3125 0 6-2.6875 6-6v-102.210938c0-3.3125-2.6875-6-6-6h-32.0625v-133.4375c-.007813-10.375-8.414063-18.785156-18.789063-18.800781h-34.390625v-95.941407h35.511719v1.890626c0 16.78125 13.601562 30.386718 30.382812 30.386718s30.386719-13.605468 30.386719-30.386718v-26.320313c0-3.3125-2.6875-6-6-6h-44.824219c-4.492187-11.371094-15.46875-18.84375-27.695312-18.859375h-110.441407c-16.359374.0195312-29.621093 13.277344-29.640624 29.640625v115.589844h-59.378907v-45.628907h45.109375c3.316406 0 6-2.6875 6-6v-38.0625c0-3.3125-2.683594-6-6-6h-130.488281c-3.3125 0-6 2.6875-6 6v38.0625c0 3.3125 2.6875 6 6 6h45.109375v45.628907h-53.941406c-8.609375-.003907-16.121094 5.847656-18.226563 14.199219l-34.789062 138.039062h-20.792969c-3.3125 0-6 2.6875-6 6v102.210938c0 3.3125 2.6875 6 6 6zm428.960938-12h-26.0625v-90.210938h26.0625zm-38.0625-235.648438v133.4375h-50.828126l35.714844-140.238281h8.324219c3.753906.003906 6.789063 3.046875 6.789063 6.800781zm6.332031-133.171875h36.769531v20.320313c0 10.152343-8.230469 18.386718-18.386719 18.386718-10.152343 0-18.382812-8.234375-18.382812-18.386718zm-29.859375-18.859375h.109375c8.398437.011719 15.644531 5.894531 17.382812 14.113281.242188 1.195313.367188 2.414063.367188 3.636719v7.539062h-35.511719v-7.539062c.019531-9.757812 7.894531-17.675781 17.652344-17.75zm-127.972656 17.640625c.011718-9.738281 7.902343-17.628906 17.640624-17.640625h86.585938c-3.835938 5.121094-5.90625 11.351562-5.902344 17.75v146.859375h-98.324218zm-150.757813 31.898437h118.488281v26.0625h-118.488281zm51.109375 38.0625h16.269531v45.628907h-16.269531zm-72.53125 62.773438c.757812-3.023438 3.472656-5.144531 6.589844-5.144531h153.589844v25.378906c0 3.3125 2.6875 6 6 6h110.320312c3.316406 0 6-2.6875 6-6v-25.378906h13.679688l-35.710938 140.238281h-294.515625zm-61.21875 147.09375h384.898438v90.210938h-384.898438zm0 0"/><path d="m213.28125 174.589844h-111.78125c-2.699219 0-5.070312 1.804687-5.785156 4.410156l-14.058594 51.109375c-.496094 1.804687-.121094 3.738281 1.011719 5.226563 1.136719 1.488281 2.898437 2.363281 4.773437 2.363281h110.507813c2.652343 0 4.988281-1.738281 5.746093-4.277344l15.332032-51.109375c.542968-1.816406.199218-3.78125-.933594-5.304688-1.132812-1.519531-2.917969-2.417968-4.8125-2.417968zm-19.796875 51.109375h-98.171875l10.757812-39.109375h99.148438zm0 0"/><path d="m269.710938 209.949219c0-3.3125-2.6875-6-6-6h-5.441407c-3.3125 0-6 2.6875-6 6 0 3.316406 2.6875 6 6 6h5.441407c3.3125 0 6-2.683594 6-6zm0 0"/><path d="m302.328125 209.949219c0-3.3125-2.683594-6-6-6h-6.519531c-3.3125 0-6 2.6875-6 6 0 3.316406 2.6875 6 6 6h6.519531c3.316406 0 6-2.683594 6-6zm0 0"/><path d="m333.871094 209.949219c0-3.3125-2.6875-6-6-6h-6.53125c-3.3125 0-6 2.6875-6 6 0 3.316406 2.6875 6 6 6h6.53125c3.3125 0 6-2.683594 6-6zm0 0"/><path d="m256.101562 232.230469h-5.441406c-3.3125 0-6 2.6875-6 6s2.6875 6 6 6h5.441406c3.3125 0 6-2.6875 6-6s-2.6875-6-6-6zm0 0"/><path d="m288.71875 232.230469h-6.519531c-3.3125 0-6 2.6875-6 6s2.6875 6 6 6h6.519531c3.316406 0 6-2.6875 6-6s-2.683594-6-6-6zm0 0"/><path d="m320.261719 232.230469h-6.53125c-3.3125 0-6 2.6875-6 6s2.6875 6 6 6h6.53125c3.3125 0 6-2.6875 6-6s-2.6875-6-6-6zm0 0"/><path d="m245.230469 258.320312h-6.53125c-3.3125 0-6 2.6875-6 6s2.6875 6 6 6h6.53125c3.3125 0 6-2.6875 6-6s-2.6875-6-6-6zm0 0"/><path d="m276.761719 258.320312h-6.523438c-3.3125 0-6 2.6875-6 6s2.6875 6 6 6h6.523438c3.3125 0 6-2.6875 6-6s-2.6875-6-6-6zm0 0"/><path d="m309.378906 258.320312h-6.519531c-3.3125 0-6 2.6875-6 6s2.6875 6 6 6h6.519531c3.316406 0 6-2.6875 6-6s-2.683594-6-6-6zm0 0"/><path d="m203.910156 260.5h-19.582031c-3.3125 0-6 2.6875-6 6s2.6875 6 6 6h19.582031c3.3125 0 6-2.6875 6-6s-2.6875-6-6-6zm0 0"/><path d="m157.148438 260.5h-22.839844c-3.3125 0-6 2.6875-6 6s2.6875 6 6 6h22.839844c3.316406 0 6-2.6875 6-6s-2.683594-6-6-6zm0 0"/><path d="m106.039062 260.5h-22.839843c-3.3125 0-6 2.6875-6 6s2.6875 6 6 6h22.839843c3.316407 0 6-2.6875 6-6s-2.683593-6-6-6zm0 0"/><path d="m186.390625 326.628906c-12.324219.003906-22.3125 9.996094-22.3125 22.320313.003906 12.324219 9.996094 22.3125 22.320313 22.3125 12.324218-.003907 22.3125-9.996094 22.3125-22.320313-.015626-12.320312-10-22.304687-22.320313-22.3125zm0 32.632813c-5.695313-.003907-10.3125-4.621094-10.3125-10.320313.003906-5.695312 4.621094-10.308594 10.316406-10.3125 5.695313 0 10.3125 4.617188 10.316407 10.3125-.003907 5.695313-4.621094 10.316406-10.320313 10.320313zm0 0"/><path d="m330.898438 35.449219h-9.820313c-3.3125 0-6 2.6875-6 6 0 3.316406 2.6875 6 6 6h9.820313c3.316406 0 6-2.683594 6-6 0-3.3125-2.683594-6-6-6zm0 0"/><path d="m256.699219 47.449219h47.429687c3.316406 0 6-2.683594 6-6 0-3.3125-2.683594-6-6-6h-47.429687c-3.3125 0-6 2.6875-6 6 0 3.316406 2.6875 6 6 6zm0 0"/><path d="m330.898438 147.949219h-39.488282c-3.3125 0-6 2.6875-6 6 0 3.316406 2.6875 6 6 6h39.488282c3.316406 0 6-2.683594 6-6 0-3.3125-2.683594-6-6-6zm0 0"/><path d="m274.039062 147.949219h-.277343c-3.316407 0-6 2.6875-6 6 0 3.316406 2.683593 6 6 6h.277343c3.316407 0 6-2.683594 6-6 0-3.3125-2.683593-6-6-6zm0 0"/><path d="m256.691406 147.949219c-3.316406 0-6 2.6875-6 6 0 3.316406 2.683594 6 6 6h.007813c3.316406-.003907 6-2.691407 5.996093-6.003907-.003906-3.3125-2.691406-6-6.003906-5.996093zm0 0"/><path d="m330.898438 62.941406h-9.820313c-3.3125 0-6 2.683594-6 6 0 3.3125 2.6875 6 6 6h9.820313c3.316406 0 6-2.6875 6-6 0-3.316406-2.683594-6-6-6zm0 0"/><path d="m256.699219 74.941406h47.429687c3.316406 0 6-2.6875 6-6 0-3.316406-2.683594-6-6-6h-47.429687c-3.3125 0-6 2.683594-6 6 0 3.3125 2.6875 6 6 6zm0 0"/><path d="m330.898438 90.429688h-9.820313c-3.3125 0-6 2.6875-6 6s2.6875 6 6 6h9.820313c3.316406 0 6-2.6875 6-6s-2.683594-6-6-6zm0 0"/><path d="m256.699219 102.429688h47.429687c3.316406 0 6-2.6875 6-6s-2.683594-6-6-6h-47.429687c-3.3125 0-6 2.6875-6 6s2.6875 6 6 6zm0 0"/><path d="m330.898438 117.921875h-9.820313c-3.3125 0-6 2.683594-6 6 0 3.3125 2.6875 6 6 6h9.820313c3.316406 0 6-2.6875 6-6 0-3.316406-2.683594-6-6-6zm0 0"/><path d="m256.699219 129.921875h47.429687c3.316406 0 6-2.6875 6-6 0-3.316406-2.683594-6-6-6h-47.429687c-3.3125 0-6 2.683594-6 6 0 3.3125 2.6875 6 6 6zm0 0"/></g></svg>