<svg height="512" viewBox="0 0 64 64" width="512" xmlns="http://www.w3.org/2000/svg"><g id="discount-book-book_store-book_shop-percent" data-name="discount-book-book store-book shop-percent"><path d="m5 3h46a0 0 0 0 1 0 0v58a0 0 0 0 1 0 0h-46a2 2 0 0 1 -2-2v-54a2 2 0 0 1 2-2z" fill="#48a3d2"/><path d="m8 3h43v58h-43z" fill="#5bcbfa"/><path d="m16 30h27v2h-27z" fill="#fff"/><path d="m16 36h27v2h-27z" fill="#fff"/><path d="m17 10h25v9h-25z" fill="#e9e9ea"/><path d="m61.04 43c0 1.4-2.251 2.432-2.662 3.7-.426 1.312.775 3.465-.019 4.557s-3.227.621-4.329 1.423-1.379 3.253-2.69 3.679c-1.266.411-2.938-1.4-4.34-1.4s-3.074 1.807-4.34 1.4c-1.311-.426-1.6-2.884-2.69-3.679s-3.527-.321-4.329-1.423.407-3.245-.019-4.557c-.411-1.265-2.662-2.3-2.662-3.7s2.251-2.432 2.662-3.7c.426-1.312-.775-3.465.019-4.557s3.227-.621 4.329-1.423 1.379-3.253 2.69-3.679c1.266-.411 2.938 1.4 4.34 1.4s3.074-1.807 4.34-1.4c1.311.426 1.6 2.884 2.69 3.679s3.527.321 4.329 1.423-.407 3.245.019 4.557c.411 1.268 2.662 2.3 2.662 3.7z" fill="#ec455a"/><path d="m61.04 43c0 1.4-2.251 2.432-2.662 3.7-.426 1.312.775 3.465-.019 4.557s-3.227.621-4.329 1.423-1.379 3.253-2.69 3.679c-1.266.411-2.938-1.4-4.34-1.4s-3.074 1.807-4.34 1.4c-1.311-.426-1.6-2.884-2.69-3.679s-3.527-.321-4.329-1.423.407-3.245-.019-4.557c-.411-1.265-2.662-2.3-2.662-3.7s2.251-2.432 2.662-3.7c.426-1.312-.775-3.465.019-4.557s3.227-.621 4.329-1.423 1.379-3.253 2.69-3.679c1.266-.411 2.938 1.4 4.34 1.4s3.074-1.807 4.34-1.4c1.311.426 1.6 2.884 2.69 3.679s3.527.321 4.329 1.423-.407 3.245.019 4.557c.411 1.268 2.662 2.3 2.662 3.7z" fill="#ec455a"/><g fill="#ffda44"><path d="m43 42a3 3 0 1 0 -3-3 3 3 0 0 0 3 3zm0-4a1 1 0 1 1 -1 1 1 1 0 0 1 1-1z"/><path d="m51 43a3 3 0 1 0 3 3 3 3 0 0 0 -3-3zm0 4a1 1 0 1 1 1-1 1 1 0 0 1 -1 1z"/><path d="m38.361 42h16.279v2h-16.279z" transform="matrix(.676 -.737 .737 .676 -16.619 48.222)"/></g><path d="m16 24h27v2h-27z" fill="#fff"/></g></svg>