<svg id="Layer_1" enable-background="new 0 0 464.012 464.012" height="512" viewBox="0 0 464.012 464.012" width="512" xmlns="http://www.w3.org/2000/svg"><path d="m213.386 133h-24c-26.801 0-39.947-32.474-21.21-51.21 5.43-5.43 12.93-8.79 21.21-8.79l-27.02-49.31c-5.84-10.66 1.87-23.69 14.03-23.69h49.98c12.16 0 19.87 13.03 14.03 23.69l-27.02 49.31c26.801 0 39.947 32.474 21.21 51.21-5.43 5.43-12.93 8.79-21.21 8.79z" fill="#ffaa64"/><path d="m313.026 463.82c-3.703.262 12.353.18-218.38.18-40.18 0-70.43-36.6-62.85-76.06l26.17-136.431c13.2-68.779 73.38-118.509 143.42-118.509 69.7 0 130.14 49.35 143.42 118.51 1.85 9.643 25.268 131.726 26.17 136.431 7.476 38.923-21.98 73.891-57.95 75.879z" fill="#ffaa64"/><path d="m241.127 9.801c1.415 3.348-1.396 6.996-5.011 6.619-1.231-.129 2.336-.09-51.72-.09-5.923 0-10.789 3.091-13.548 7.492-2.011 3.207-6.663 3.188-8.482-.133-5.84-10.662 1.871-23.689 14.03-23.689h49.98c6.913 0 12.388 4.211 14.751 9.801z" fill="#ffbd7b"/><path d="m219.671 73.66c12.441 2.653 10.455 21.007-2.265 21.01-15.231.004-27.393 11.2-29.666 25.249-1.285 7.939-10.732 11.568-17.024 6.56-22.466-17.879-9.18-53.479 19.329-53.479 25.512 0 25.598-.199 29.626.66z" fill="#b2b2b2"/><path d="m213.386 73c16.57 0 30 13.43 30 30 0 16.56-13.44 30-30 30-8.685 0-15.315 0-24 0-26.818 0-39.938-32.482-21.21-51.21 5.43-5.43 12.93-8.79 21.21-8.79z" fill="#999"/><path d="m269.354 149.77c16.751 8.82 9.563 34.278-9.336 33.171-69.622-4.079-137.789 42.568-152.323 118.299-8.877 46.276-15.094 77.725-19.337 99.631-7.036 36.33-61.765 28.169-57.251-8.559.388-3.155-1.442 6.732 26.858-140.802 18.556-96.683 125.311-147.061 211.389-101.74z" fill="#ffbd7b"/><path d="m296.386 190c75.66 0 137 61.34 137 137s-61.34 137-137 137-137-61.34-137-137 61.34-137 137-137z" fill="#ffe773"/><path d="m357.649 204.429c18.504 9.267 11.539 37.066-9.155 37.064-71.767-.01-137.91 57.368-137.486 137.864.109 20.702-27.75 27.661-37.061 9.17-45.892-91.142 21.222-198.528 122.44-198.527 22.019 0 42.826 5.196 61.262 14.429z" fill="#ffec8f"/><g fill="#4d4e59"><path d="m347.146 298.86-78.9 78.899c-6.219 6.239-16.371 6.269-22.62 0-6.25-6.24-6.25-16.38 0-22.62l78.9-78.899c6.24-6.25 16.38-6.25 22.62 0 6.25 6.24 6.25 16.38 0 22.62z"/><path d="m242.246 287.55c0-11.729 9.54-21.27 21.26-21.27s21.26 9.54 21.26 21.27c0 11.72-9.54 21.26-21.26 21.26s-21.26-9.54-21.26-21.26z"/><path d="m350.526 366.45c0 11.729-9.54 21.27-21.26 21.27s-21.26-9.54-21.26-21.27c0-11.72 9.54-21.26 21.26-21.26s21.26 9.54 21.26 21.26z"/></g></svg>