<svg id="Capa_1" enable-background="new 0 0 512 512" height="512" viewBox="0 0 512 512" width="512" xmlns="http://www.w3.org/2000/svg"><g><path d="m256 256h-15v150h15 15v-150z" fill="#59c36a"/><path d="m256 256h15v150h-15z" fill="#00a66c"/><path d="m331 301c-41.422 0-75 33.578-75 75 0-41.422-33.578-75-75-75h-45v15c0 41.42 33.578 75 75 75l45 30 45-30c41.422 0 75-33.58 75-75v-15z" fill="#97de3d"/><path d="m376 316v-15h-45c-41.422 0-75 33.578-75 75v45l45-30c41.422 0 75-33.58 75-75z" fill="#59c36a"/><g><path d="m256 0c-74.559 0-135 61.441-135 136s60.441 135 135 135 135-60.441 135-135-60.441-136-135-136z" fill="#fed843"/><path d="m391 136c0-74.559-60.441-136-135-136v271c74.559 0 135-60.441 135-135z" fill="#fabe2c"/><g><path d="m256 121c-8.276 0-15-6.724-15-15s6.724-15 15-15 15 6.724 15 15h30c0-19.565-12.563-36.048-30-42.246v-32.754h-15-15v32.754c-17.437 6.198-30 22.681-30 42.246 0 24.853 20.147 45 45 45 8.276 0 15 6.724 15 15s-6.724 15-15 15-15-6.724-15-15h-30c0 19.565 12.563 36.048 30 42.246v32.754h15 15v-32.754c17.437-6.198 30-22.681 30-42.246 0-24.853-20.147-45-45-45z" fill="#fabe2c"/></g><g fill="#ff9100"><path d="m271 208.246c17.437-6.198 30-22.681 30-42.246 0-24.853-20.147-45-45-45v30c8.276 0 15 6.724 15 15s-6.724 15-15 15v60h15z"/><path d="m271 106h30c0-19.565-12.563-36.048-30-42.246v-32.754h-15v60c8.276 0 15 6.724 15 15z"/></g></g><path d="m256 391h-140.815l40.004 121h100.811 100.811l40.004-121z" fill="#edf9ff"/><path d="m396.815 391h-140.815v121h100.811z" fill="#c0e1f0"/></g></svg>